<?xml version="1.0" standalone="no"?>
<!DOCTYPE svg PUBLIC "-//W3C//DTD SVG 20010904//EN"
 "http://www.w3.org/TR/2001/REC-SVG-20010904/DTD/svg10.dtd">
<svg version="1.0" xmlns="http://www.w3.org/2000/svg"
 width="512.000000pt" height="512.000000pt" viewBox="0 0 512.000000 512.000000"
 preserveAspectRatio="xMidYMid meet">
<metadata>
Created by potrace 1.16, written by Peter Selinger 2001-2019
</metadata>
<g transform="translate(0.000000,512.000000) scale(0.100000,-0.100000)"
fill="#000000" stroke="none">
<path d="M2085 4380 c-127 -14 -235 -67 -325 -159 -77 -78 -113 -142 -140
-247 -18 -68 -20 -111 -20 -366 l0 -288 102 0 c90 0 106 3 143 25 55 32 71 69
78 182 6 100 20 137 67 177 60 50 93 52 231 17 258 -65 502 -60 732 15 66 22
127 12 173 -28 52 -46 65 -79 73 -192 8 -117 21 -144 87 -176 32 -16 60 -20
137 -20 l97 0 0 280 c0 303 -2 316 -57 388 -32 42 -114 82 -169 82 -61 0 -82
22 -99 105 -23 108 -84 180 -174 205 -41 11 -839 12 -936 0z"/>
<path d="M1840 1813 c-249 -123 -296 -142 -505 -208 -273 -87 -304 -99 -370
-140 -108 -68 -187 -172 -230 -299 -20 -60 -27 -104 -32 -215 l-6 -139 59 -68
c115 -131 342 -305 551 -422 256 -144 520 -236 838 -293 115 -21 161 -24 410
-24 224 0 302 4 390 18 273 45 514 121 751 237 245 121 524 322 663 479 l64
72 -6 142 c-4 103 -11 160 -26 207 -39 123 -112 223 -213 291 -77 53 -90 58
-383 151 -215 68 -275 91 -425 168 -272 138 -373 183 -364 162 4 -9 21 -55 37
-102 27 -76 30 -101 35 -240 4 -130 1 -179 -18 -290 -53 -324 -176 -695 -362
-1092 l-50 -106 -78 -20 -78 -19 -55 116 c-259 542 -397 1020 -397 1372 0 146
14 232 54 330 14 35 24 64 23 65 -1 2 -126 -58 -277 -133z"/>
<path d="M2443 1356 c-67 -55 -122 -103 -122 -106 -1 -3 26 -40 60 -82 l60
-78 118 0 119 0 56 75 c31 42 59 81 61 88 3 10 -156 155 -213 193 -14 10 -36
-4 -139 -90z"/>
</g>
</svg>
